<svg xmlns="http://www.w3.org/2000/svg" xmlns:xlink="http://www.w3.org/1999/xlink" width="1619" zoomAndPan="magnify" viewBox="0 0 1214.25 430.499987" height="574" preserveAspectRatio="xMidYMid meet" version="1.0"><defs><filter x="0%" y="0%" width="100%" height="100%" id="43b7923b73"><feColorMatrix values="0 0 0 0 1 0 0 0 0 1 0 0 0 0 1 0 0 0 1 0" color-interpolation-filters="sRGB"/></filter><clipPath id="e9f09d2a64"><path d="M 12 25 L 1213.171875 25 L 1213.171875 430 L 12 430 Z M 12 25 " clip-rule="nonzero"/></clipPath><mask id="bdb7c7cc3a"><g filter="url(#43b7923b73)"><rect x="-121.425" width="1457.1" fill="#000000" y="-43.049999" height="516.599984" fill-opacity="0.48"/></g></mask><clipPath id="657ad2cf39"><path d="M 0.609375 0.648438 L 1200.714844 0.648438 L 1200.714844 404.101562 L 0.609375 404.101562 Z M 0.609375 0.648438 " clip-rule="nonzero"/></clipPath><clipPath id="34528b7a38"><rect x="0" width="1202" y="0" height="405"/></clipPath><clipPath id="dc265419da"><path d="M 0.328125 0 L 1202 0 L 1202 404 L 0.328125 404 Z M 0.328125 0 " clip-rule="nonzero"/></clipPath><mask id="64afac99c2"><g filter="url(#43b7923b73)"><rect x="-121.425" width="1457.1" fill="#000000" y="-43.049999" height="516.599984" fill-opacity="0.48"/></g></mask><clipPath id="cd79d41e0f"><path d="M 0.808594 0.308594 L 1200.914062 0.308594 L 1200.914062 403.929688 L 0.808594 403.929688 Z M 0.808594 0.308594 " clip-rule="nonzero"/></clipPath><clipPath id="5f38c0c71a"><rect x="0" width="1202" y="0" height="404"/></clipPath></defs><g clip-path="url(#e9f09d2a64)"><g mask="url(#bdb7c7cc3a)"><g transform="matrix(1, 0, 0, 1, 12, 25)"><g clip-path="url(#34528b7a38)"><g clip-path="url(#657ad2cf39)"><path fill="#a4ccee" d="M 1201.078125 404.082031 L 145.011719 404.082031 C 65.386719 404.082031 0.609375 339.300781 0.609375 259.675781 L 0.609375 0.738281 L 1056.675781 0.738281 C 1136.296875 0.738281 1201.078125 65.519531 1201.078125 145.140625 Z M 5.390625 5.519531 L 5.390625 259.675781 C 5.390625 336.664062 68.023438 399.300781 145.011719 399.300781 L 1196.296875 399.300781 L 1196.296875 145.140625 C 1196.296875 68.15625 1133.660156 5.519531 1056.675781 5.519531 Z M 5.390625 5.519531 " fill-opacity="1" fill-rule="nonzero"/></g></g></g></g></g><g clip-path="url(#dc265419da)"><g mask="url(#64afac99c2)"><g transform="matrix(1, 0, 0, 1, 0.000000000000000111, 0)"><g clip-path="url(#5f38c0c71a)"><g clip-path="url(#cd79d41e0f)"><path fill="#ffce23" d="M 1201.277344 403.796875 L 145.214844 403.796875 C 65.589844 403.796875 0.808594 339.019531 0.808594 259.394531 L 0.808594 0.457031 L 1056.875 0.457031 C 1136.5 0.457031 1201.277344 65.234375 1201.277344 144.859375 Z M 5.59375 5.238281 L 5.59375 259.394531 C 5.59375 336.382812 68.226562 399.015625 145.214844 399.015625 L 1196.496094 399.015625 L 1196.496094 144.859375 C 1196.496094 67.871094 1133.863281 5.238281 1056.875 5.238281 Z M 5.59375 5.238281 " fill-opacity="1" fill-rule="nonzero"/></g></g></g></g></g></svg>