<svg xmlns="http://www.w3.org/2000/svg" xmlns:xlink="http://www.w3.org/1999/xlink" width="1779" zoomAndPan="magnify" viewBox="0 0 1334.25 1099.500012" height="1466" preserveAspectRatio="xMidYMid meet" version="1.0"><defs><clipPath id="bfaa88bcaa"><path d="M 509 496.484375 L 1145 496.484375 L 1145 1098.941406 L 509 1098.941406 Z M 509 496.484375 " clip-rule="nonzero"/></clipPath><clipPath id="1ff716fa34"><path d="M 509 673 L 1304 673 L 1304 1098.941406 L 509 1098.941406 Z M 509 673 " clip-rule="nonzero"/></clipPath><clipPath id="6cfb7d2639"><path d="M 777 225 L 1009.929688 225 L 1009.929688 442 L 777 442 Z M 777 225 " clip-rule="nonzero"/></clipPath><clipPath id="4e7383d1a1"><path d="M 999 889.851562 L 1126.671875 889.851562 L 1126.671875 1060.261719 L 999 1060.261719 Z M 999 889.851562 " clip-rule="nonzero"/></clipPath><clipPath id="46783f5cf5"><path d="M 981.695312 955 L 1110 955 L 1110 1021 L 981.695312 1021 Z M 981.695312 955 " clip-rule="nonzero"/></clipPath><clipPath id="47ff3a4d07"><path d="M 1084 890 L 1126.671875 890 L 1126.671875 963 L 1084 963 Z M 1084 890 " clip-rule="nonzero"/></clipPath><clipPath id="8a50eaff4f"><path d="M 1083 889.851562 L 1126.671875 889.851562 L 1126.671875 933 L 1083 933 Z M 1083 889.851562 " clip-rule="nonzero"/></clipPath><clipPath id="de3eda518b"><path d="M 783 882.332031 L 918.984375 882.332031 L 918.984375 1068 L 783 1068 Z M 783 882.332031 " clip-rule="nonzero"/></clipPath><clipPath id="a3871d9f67"><path d="M 871 882.332031 L 918.984375 882.332031 L 918.984375 931 L 871 931 Z M 871 882.332031 " clip-rule="nonzero"/></clipPath><clipPath id="2a0e386517"><path d="M 758.75 902 L 876 902 L 876 1048 L 758.75 1048 Z M 758.75 902 " clip-rule="nonzero"/></clipPath></defs><g clip-path="url(#bfaa88bcaa)"><path fill="#efb054" d="M 509.699219 1099.199219 L 509.699219 589.273438 C 509.699219 589.273438 506.167969 555.472656 595.492188 558.367188 L 595.492188 496.558594 C 595.492188 496.558594 695 500.421875 749.105469 496.558594 L 791.613281 554.503906 L 1074.683594 566.09375 C 1074.683594 566.09375 1149.070312 569.273438 1144.25 620.175781 C 1139.417969 671.078125 1143.46875 1099.195312 1143.46875 1099.195312 L 509.699219 1099.195312 Z M 509.699219 1099.199219 " fill-opacity="1" fill-rule="nonzero"/></g><path fill="#ffffff" d="M 563.289062 587.988281 L 1055.363281 587.988281 L 1055.363281 1064.433594 L 563.289062 1064.433594 Z M 563.289062 587.988281 " fill-opacity="1" fill-rule="nonzero"/><g clip-path="url(#1ff716fa34)"><path fill="#f4db73" d="M 509.699219 1099.199219 C 509.699219 1099.199219 644.949219 716.753906 702.921875 693.574219 C 760.886719 670.398438 1259.40625 662.667969 1301.914062 693.574219 C 1301.914062 693.574219 1332.828125 728.34375 1143.472656 1099.199219 Z M 509.699219 1099.199219 " fill-opacity="1" fill-rule="nonzero"/></g><path fill="#feeec9" d="M 240.539062 388.871094 C 240.539062 442.800781 196.804688 486.527344 142.855469 486.527344 C 88.902344 486.527344 14.0625 437.058594 7.566406 383.515625 C 0.246094 323.113281 46.015625 253.566406 128.402344 257.226562 C 212.554688 260.96875 240.539062 334.933594 240.539062 388.871094 " fill-opacity="1" fill-rule="nonzero"/><path fill="#feeec9" d="M 981.554688 376.054688 C 981.554688 429.992188 937.824219 473.710938 883.871094 473.710938 C 829.929688 473.710938 754.535156 428.351562 754.535156 374.425781 C 754.535156 320.488281 825.011719 263.125 878.964844 263.125 C 932.917969 263.125 981.554688 322.121094 981.554688 376.054688 " fill-opacity="1" fill-rule="nonzero"/><path fill="#2871ba" d="M 135.195312 212.257812 C 102.5 212.257812 73.269531 224.480469 52.351562 247.046875 C 30.222656 270.933594 19.289062 304.039062 23.117188 335.601562 C 29.394531 387.410156 103.121094 436.195312 155.675781 436.195312 C 208.019531 436.195312 250.617188 393.621094 250.617188 341.277344 C 250.617188 295.210938 227.539062 216.226562 141.101562 212.378906 C 139.121094 212.296875 137.148438 212.257812 135.195312 212.257812 Z M 155.675781 441.683594 C 128.730469 441.683594 96.195312 429.738281 68.625 409.738281 C 39.316406 388.46875 20.742188 361.691406 17.65625 336.257812 C 13.640625 303.113281 25.109375 268.371094 48.324219 243.320312 C 71.609375 218.195312 104.613281 205.257812 141.34375 206.902344 C 231.933594 210.925781 256.105469 293.261719 256.105469 341.277344 C 256.105469 396.640625 211.050781 441.683594 155.675781 441.683594 " fill-opacity="1" fill-rule="nonzero"/><g clip-path="url(#6cfb7d2639)"><path fill="#2871ba" d="M 904.59375 231.097656 C 853.710938 231.097656 782.914062 285.792969 782.914062 339.644531 C 782.914062 392.945312 859.511719 436.195312 909.5 436.195312 C 961.859375 436.195312 1004.445312 393.621094 1004.445312 341.277344 C 1004.445312 285.671875 954.988281 231.097656 904.59375 231.097656 Z M 909.5 441.683594 C 851.28125 441.683594 777.425781 393.636719 777.425781 339.644531 C 777.425781 313.714844 793.078125 285.304688 820.347656 261.699219 C 846.464844 239.089844 877.960938 225.597656 904.59375 225.597656 C 957.757812 225.597656 1009.933594 282.894531 1009.933594 341.277344 C 1009.933594 396.640625 964.878906 441.683594 909.5 441.683594 " fill-opacity="1" fill-rule="nonzero"/></g><path fill="#2871ba" d="M 452 632.671875 C 452 669.8125 437.707031 699.929688 420.074219 699.929688 C 402.4375 699.929688 388.148438 669.8125 388.148438 632.671875 C 388.148438 595.519531 402.4375 565.402344 420.074219 565.402344 C 437.707031 565.402344 452 595.519531 452 632.671875 " fill-opacity="1" fill-rule="nonzero"/><path fill="#75d6f4" d="M 408.5 708.953125 C 406.820312 698.539062 404.589844 688.238281 402.410156 677.929688 C 390.503906 680.339844 378.179688 681.617188 365.558594 681.617188 C 276.660156 681.617188 202.539062 618.597656 185.308594 534.816406 C 187.007812 532.753906 188.539062 530.558594 189.84375 528.222656 C 190.800781 528.484375 191.785156 528.671875 192.828125 528.671875 L 212.140625 528.671875 C 218.363281 528.671875 223.402344 523.625 223.402344 517.402344 C 223.402344 511.183594 218.363281 506.144531 212.140625 506.144531 L 195.109375 506.144531 C 194.902344 500.273438 193.503906 494.699219 191.121094 489.632812 L 216.410156 450.417969 C 219.78125 445.191406 218.277344 438.222656 213.042969 434.851562 C 207.8125 431.484375 200.839844 432.984375 197.472656 438.210938 L 175.765625 471.863281 C 171.082031 468.722656 165.753906 466.421875 160 465.183594 L 160 418.304688 C 160 412.082031 154.953125 407.042969 148.730469 407.042969 C 142.507812 407.042969 137.46875 412.082031 137.46875 418.304688 L 137.46875 465.878906 C 132.636719 467.238281 128.148438 469.367188 124.140625 472.109375 L 99.742188 439.054688 C 96.042969 434.054688 88.996094 432.984375 83.984375 436.683594 C 78.984375 440.378906 77.914062 447.425781 81.613281 452.433594 L 109.109375 489.691406 C 106.535156 495.167969 105.0625 501.238281 105.0625 507.648438 C 105.0625 520.800781 111.125 532.566406 120.667969 540.550781 C 140.6875 657.671875 242.695312 746.828125 365.558594 746.828125 C 381.0625 746.828125 396.21875 745.402344 410.933594 742.683594 C 411.007812 731.414062 410.320312 720.210938 408.5 708.953125 " fill-opacity="1" fill-rule="nonzero"/><path fill="#2871ba" d="M 539.585938 1097.777344 C 564.882812 1097.777344 585.390625 1061.375 585.390625 1016.472656 C 585.390625 971.574219 564.882812 935.171875 539.585938 935.171875 L 491.835938 935.171875 C 466.535156 935.171875 446.03125 971.574219 446.03125 1016.472656 C 446.03125 1061.375 466.535156 1097.777344 491.835938 1097.777344 L 539.585938 1097.777344 " fill-opacity="1" fill-rule="nonzero"/><path fill="#75d6f4" d="M 501.578125 1016.472656 C 501.578125 1052.773438 518.160156 1082.214844 538.617188 1082.214844 C 559.066406 1082.214844 575.648438 1052.773438 575.648438 1016.472656 C 575.648438 980.175781 559.066406 950.746094 538.617188 950.746094 C 518.160156 950.746094 501.578125 980.175781 501.578125 1016.472656 " fill-opacity="1" fill-rule="nonzero"/><path fill="#75d6f4" d="M 347.484375 912.203125 C 347.484375 912.203125 346.648438 944.1875 512.125 944.1875 C 666.574219 944.1875 683.945312 912.203125 683.945312 912.203125 L 683.945312 737.398438 C 683.945312 644.511719 608.625 569.210938 515.710938 569.210938 C 422.804688 569.210938 347.484375 644.511719 347.484375 737.398438 L 347.484375 912.203125 " fill-opacity="1" fill-rule="nonzero"/><path fill="#fdb71e" d="M 435.792969 553.976562 C 367.191406 584.578125 319.378906 653.367188 319.378906 733.320312 L 319.378906 937.320312 C 319.378906 937.320312 318.410156 974.648438 511.523438 974.648438 C 691.773438 974.648438 712.042969 937.320312 712.042969 937.320312 L 712.042969 733.320312 C 712.042969 652.484375 663.167969 583.066406 593.355469 552.980469 L 593.515625 552.5 C 560.210938 570.589844 537.605469 605.875 537.605469 646.433594 L 537.605469 703.710938 C 537.605469 745.300781 503.875 779.007812 462.285156 779.007812 C 420.691406 779.007812 386.964844 745.300781 386.964844 703.710938 L 386.964844 643.863281 C 386.964844 606.277344 406.378906 573.226562 435.734375 554.179688 L 435.792969 553.976562 " fill-opacity="1" fill-rule="nonzero"/><path fill="#2871ba" d="M 681.84375 953.203125 C 680.324219 953.203125 679.09375 951.964844 679.09375 950.453125 L 679.09375 733.308594 C 679.09375 663 640.84375 598.105469 579.28125 563.964844 C 577.957031 563.226562 577.480469 561.554688 578.210938 560.234375 C 578.953125 558.898438 580.613281 558.421875 581.945312 559.164062 C 645.253906 594.28125 684.582031 661.003906 684.582031 733.308594 L 684.582031 950.453125 C 684.582031 951.964844 683.355469 953.203125 681.84375 953.203125 " fill-opacity="1" fill-rule="nonzero"/><path fill="#75d6f4" d="M 528.277344 583.875 L 527.65625 582.035156 C 493.789062 537.003906 481.34375 466.609375 482.890625 438.773438 L 408.859375 491.988281 C 407.140625 522.875 426.59375 602.113281 467.792969 645.027344 L 470.269531 646.988281 C 474.484375 650.449219 480.011719 652.445312 486.535156 652.445312 C 505.726562 652.445312 526.285156 635.15625 532.453125 613.832031 C 535.941406 601.746094 534.054688 590.957031 528.277344 583.875 " fill-opacity="1" fill-rule="nonzero"/><path fill="#ddeff2" d="M 486.984375 655.1875 C 480.046875 655.1875 473.816406 653.085938 468.984375 649.097656 L 466.542969 647.175781 C 466.449219 647.097656 466.355469 647.015625 466.261719 646.921875 C 423.863281 602.769531 404.871094 522.488281 406.566406 491.828125 C 406.652344 490.375 407.863281 489.238281 409.308594 489.238281 C 409.355469 489.238281 409.410156 489.238281 409.46875 489.25 C 410.980469 489.332031 412.144531 490.628906 412.046875 492.136719 C 410.398438 521.925781 428.875 599.9375 470.101562 642.980469 L 472.429688 644.828125 C 476.3125 648.027344 481.335938 649.699219 486.984375 649.699219 C 505.011719 649.699219 524.429688 633.269531 530.265625 613.070312 C 533.378906 602.292969 532.046875 592.28125 526.613281 585.609375 C 526.398438 585.355469 526.238281 585.066406 526.136719 584.757812 L 525.648438 583.320312 C 490.738281 536.628906 479.082031 466.09375 480.613281 438.613281 C 480.695312 437.105469 481.878906 435.894531 483.503906 436.035156 C 485.011719 436.109375 486.175781 437.40625 486.09375 438.925781 C 484.648438 464.921875 496.460938 535.371094 530.3125 580.375 C 530.492188 580.609375 530.621094 580.882812 530.714844 581.152344 L 531.183594 582.542969 C 537.519531 590.609375 539.113281 602.261719 535.546875 614.589844 C 529.074219 636.976562 507.292969 655.1875 486.984375 655.1875 " fill-opacity="1" fill-rule="nonzero"/><path fill="#ddeff2" d="M 470.71875 634.726562 C 463.230469 634.726562 456.503906 632.671875 451.277344 628.796875 C 450.054688 627.886719 449.800781 626.167969 450.714844 624.949219 C 451.613281 623.730469 453.339844 623.484375 454.550781 624.386719 C 458.832031 627.558594 464.421875 629.238281 470.71875 629.238281 C 490.617188 629.238281 512.003906 612.988281 518.402344 593.003906 C 521.789062 582.449219 520.335938 572.636719 514.414062 566.097656 C 513.402344 564.980469 513.484375 563.242188 514.613281 562.222656 C 515.730469 561.199219 517.464844 561.285156 518.488281 562.417969 C 525.75 570.449219 527.628906 582.203125 523.628906 594.683594 C 516.554688 616.769531 492.820312 634.726562 470.71875 634.726562 " fill-opacity="1" fill-rule="nonzero"/><path fill="#ddeff2" d="M 459.347656 614.367188 C 458.539062 614.367188 457.734375 614.339844 456.933594 614.289062 C 449.671875 613.839844 443.28125 611.382812 438.4375 607.1875 C 437.300781 606.183594 437.179688 604.457031 438.175781 603.304688 C 439.171875 602.160156 440.90625 602.046875 442.042969 603.03125 C 445.953125 606.4375 451.230469 608.425781 457.273438 608.800781 C 476.359375 609.964844 498.039062 595.085938 505.441406 575.582031 C 509.367188 565.234375 508.566406 555.363281 503.246094 548.488281 C 502.316406 547.285156 502.542969 545.558594 503.734375 544.628906 C 504.945312 543.710938 506.664062 543.925781 507.59375 545.128906 C 514.105469 553.542969 515.195312 565.355469 510.578125 577.523438 C 502.695312 598.304688 480.105469 614.355469 459.347656 614.367188 " fill-opacity="1" fill-rule="nonzero"/><path fill="#ddeff2" d="M 450.542969 588.199219 C 447.570312 588.199219 444.652344 587.910156 441.824219 587.308594 C 434.703125 585.796875 428.742188 582.421875 424.585938 577.550781 C 423.601562 576.398438 423.742188 574.671875 424.894531 573.675781 C 426.042969 572.699219 427.777344 572.832031 428.761719 573.988281 C 432.132812 577.925781 437.050781 580.675781 442.96875 581.941406 C 461.738281 585.9375 485.3125 574.398438 495.535156 556.199219 C 500.9375 546.554688 501.613281 536.664062 497.371094 529.085938 C 496.632812 527.761719 497.101562 526.089844 498.421875 525.351562 C 499.746094 524.609375 501.425781 525.085938 502.167969 526.402344 C 507.367188 535.699219 506.691406 547.539062 500.320312 558.890625 C 490.550781 576.3125 469.585938 588.199219 450.542969 588.199219 " fill-opacity="1" fill-rule="nonzero"/><path fill="#ddeff2" d="M 444.527344 562.886719 C 438.496094 562.886719 432.636719 561.875 427.363281 559.726562 C 423.09375 557.980469 419.425781 555.605469 416.460938 552.671875 C 415.390625 551.601562 415.378906 549.867188 416.449219 548.785156 C 417.519531 547.707031 419.265625 547.707031 420.335938 548.769531 C 422.773438 551.199219 425.84375 553.167969 429.4375 554.640625 C 447.222656 561.882812 472.457031 554.660156 485.707031 538.550781 C 492.738281 530.003906 495.128906 520.398438 492.296875 512.179688 C 491.796875 510.742188 492.558594 509.183594 493.984375 508.6875 C 495.421875 508.199219 496.988281 508.949219 497.484375 510.386719 C 500.96875 520.445312 498.21875 531.984375 489.949219 542.039062 C 479.175781 555.128906 461.175781 562.886719 444.527344 562.886719 " fill-opacity="1" fill-rule="nonzero"/><path fill="#ddeff2" d="M 442.097656 537.40625 C 433.738281 537.40625 425.636719 535.613281 418.851562 531.871094 C 415.632812 530.097656 412.835938 527.96875 410.519531 525.519531 C 409.476562 524.421875 409.523438 522.6875 410.632812 521.636719 C 411.730469 520.601562 413.464844 520.640625 414.515625 521.746094 C 416.429688 523.773438 418.785156 525.566406 421.507812 527.066406 C 438.316406 536.335938 464.226562 532.113281 479.269531 517.65625 C 487.246094 509.992188 490.757812 500.722656 488.890625 492.234375 C 488.570312 490.75 489.5 489.285156 490.980469 488.96875 C 492.4375 488.640625 493.929688 489.578125 494.257812 491.058594 C 496.539062 501.453125 492.464844 512.601562 483.078125 521.617188 C 472.449219 531.832031 456.859375 537.398438 442.097656 537.40625 " fill-opacity="1" fill-rule="nonzero"/><path fill="#75d6f4" d="M 665.871094 746.679688 C 668.734375 746.78125 671.605469 746.828125 674.496094 746.828125 C 801.550781 746.828125 906.328125 651.480469 921.15625 528.457031 L 855.964844 528.457031 C 841.265625 615.386719 765.636719 681.617188 674.496094 681.617188 C 671.839844 681.617188 669.191406 681.558594 666.554688 681.445312 L 664.96875 681.617188 C 658.148438 681.617188 652.609375 696.214844 652.609375 714.226562 C 652.609375 732.230469 658.148438 746.828125 664.96875 746.828125 L 665.871094 746.679688 " fill-opacity="1" fill-rule="nonzero"/><path fill="#75d6f4" d="M 844.871094 507.648438 C 844.871094 531.691406 865.046875 551.1875 889.925781 551.1875 C 914.8125 551.1875 934.988281 531.691406 934.988281 507.648438 C 934.988281 483.601562 914.8125 464.097656 889.925781 464.097656 C 865.046875 464.097656 844.871094 483.601562 844.871094 507.648438 " fill-opacity="1" fill-rule="nonzero"/><path fill="#2871ba" d="M 863.761719 507.535156 C 863.761719 521.503906 875.472656 532.828125 889.925781 532.828125 C 904.386719 532.828125 916.097656 521.503906 916.097656 507.535156 C 916.097656 493.566406 904.386719 482.242188 889.925781 482.242188 C 875.472656 482.242188 863.761719 493.566406 863.761719 507.535156 " fill-opacity="1" fill-rule="nonzero"/><path fill="#ddeff2" d="M 870.621094 507.535156 C 870.621094 517.835938 879.265625 526.195312 889.925781 526.195312 C 900.597656 526.195312 909.230469 517.835938 909.230469 507.535156 C 909.230469 497.222656 900.597656 488.875 889.925781 488.875 C 879.265625 488.875 870.621094 497.222656 870.621094 507.535156 " fill-opacity="1" fill-rule="nonzero"/><path fill="#2871ba" d="M 123.652344 507.535156 C 123.652344 521.503906 135.375 532.828125 149.828125 532.828125 C 164.28125 532.828125 176 521.503906 176 507.535156 C 176 493.566406 164.28125 482.242188 149.828125 482.242188 C 135.375 482.242188 123.652344 493.566406 123.652344 507.535156 " fill-opacity="1" fill-rule="nonzero"/><path fill="#ddeff2" d="M 130.523438 507.535156 C 130.523438 517.835938 139.167969 526.195312 149.828125 526.195312 C 160.488281 526.195312 169.132812 517.835938 169.132812 507.535156 C 169.132812 497.222656 160.488281 488.875 149.828125 488.875 C 139.167969 488.875 130.523438 497.222656 130.523438 507.535156 " fill-opacity="1" fill-rule="nonzero"/><path fill="#75d6f4" d="M 907.632812 483.328125 L 925.765625 496.707031 L 958.441406 452.433594 C 962.140625 447.425781 961.070312 440.378906 956.066406 436.683594 C 951.054688 432.984375 944.007812 434.054688 940.3125 439.054688 L 907.632812 483.328125 " fill-opacity="1" fill-rule="nonzero"/><path fill="#75d6f4" d="M 880.0625 473.328125 L 902.585938 473.328125 L 902.585938 418.304688 C 902.585938 412.082031 897.546875 407.042969 891.324219 407.042969 C 885.101562 407.042969 880.0625 412.082031 880.0625 418.304688 L 880.0625 473.328125 " fill-opacity="1" fill-rule="nonzero"/><path fill="#75d6f4" d="M 853.46875 496.660156 L 872.40625 484.453125 L 842.582031 438.210938 C 839.210938 432.984375 832.238281 431.484375 827.011719 434.851562 C 821.785156 438.222656 820.273438 445.191406 823.644531 450.417969 L 853.46875 496.660156 " fill-opacity="1" fill-rule="nonzero"/><path fill="#75d6f4" d="M 858.488281 517.402344 C 858.488281 511.183594 853.449219 506.144531 847.226562 506.144531 L 827.921875 506.144531 C 821.699219 506.144531 816.652344 511.183594 816.652344 517.402344 C 816.652344 523.625 821.699219 528.671875 827.921875 528.671875 L 847.226562 528.671875 C 853.449219 528.671875 858.488281 523.625 858.488281 517.402344 " fill-opacity="1" fill-rule="nonzero"/><path fill="#2871ba" d="M 228.816406 166.296875 C 228.527344 166.296875 228.214844 166.25 227.914062 166.144531 C 226.488281 165.648438 225.730469 164.082031 226.226562 162.644531 C 259.90625 65.722656 389.367188 0.957031 534.027344 8.625 C 655.003906 15.050781 760.371094 70.648438 802.453125 150.269531 C 803.167969 151.613281 802.648438 153.273438 801.308594 153.976562 C 799.964844 154.691406 798.304688 154.175781 797.601562 152.832031 C 756.394531 74.886719 652.828125 20.433594 533.738281 14.113281 C 391.382812 6.550781 264.308594 69.785156 231.417969 164.449219 C 231.023438 165.582031 229.953125 166.296875 228.816406 166.296875 " fill-opacity="1" fill-rule="nonzero"/><path fill="#2871ba" d="M 750.585938 72.878906 C 750.003906 72.878906 749.410156 72.691406 748.90625 72.296875 C 715.101562 46 672.410156 25.425781 625.433594 12.789062 C 623.96875 12.394531 623.105469 10.882812 623.5 9.421875 C 623.894531 7.957031 625.414062 7.09375 626.871094 7.488281 C 674.53125 20.304688 717.90625 41.226562 752.273438 67.964844 C 753.476562 68.894531 753.691406 70.617188 752.761719 71.820312 C 752.21875 72.515625 751.410156 72.878906 750.585938 72.878906 " fill-opacity="1" fill-rule="nonzero"/><path fill="#2871ba" d="M 268.578125 81.578125 C 267.847656 81.578125 267.105469 81.285156 266.570312 80.695312 C 265.539062 79.589844 265.605469 77.84375 266.710938 76.820312 C 287.816406 57.257812 313.464844 40.53125 342.941406 27.113281 C 344.320312 26.476562 345.945312 27.085938 346.574219 28.464844 C 347.203125 29.855469 346.59375 31.476562 345.210938 32.105469 C 316.28125 45.289062 291.121094 61.6875 270.445312 80.84375 C 269.921875 81.332031 269.246094 81.578125 268.578125 81.578125 " fill-opacity="1" fill-rule="nonzero"/><path fill="#fdb71e" d="M 211.398438 180.144531 C 232.710938 163.40625 255.929688 147.871094 280.65625 133.796875 C 256.164062 132.578125 236.378906 129.855469 215.660156 114.453125 C 215.894531 131.609375 217.460938 152.824219 212.816406 168.378906 " fill-opacity="1" fill-rule="nonzero"/><path fill="#fdb71e" d="M 804.066406 194.085938 C 801.65625 169.410156 801.476562 144.53125 803.511719 119.816406 C 787.785156 133.167969 768.679688 141.761719 749.851562 150.1875 C 764.503906 156.40625 782.980469 170.507812 794.269531 184.636719 " fill-opacity="1" fill-rule="nonzero"/><path fill="#7097a8" d="M 817.066406 198.90625 C 815.667969 198.90625 814.464844 197.847656 814.332031 196.429688 C 812.117188 173.746094 811.78125 150.75 813.300781 127.988281 C 799.84375 138.214844 784.546875 145.515625 769.417969 152.324219 C 783.582031 159.632812 799.355469 172.421875 809.417969 184.992188 C 810.363281 186.175781 810.175781 187.902344 808.992188 188.851562 C 807.800781 189.796875 806.074219 189.601562 805.128906 188.417969 C 794.261719 174.832031 776.429688 161.003906 761.769531 154.792969 C 760.765625 154.363281 760.109375 153.375 760.101562 152.289062 C 760.089844 151.199219 760.730469 150.207031 761.722656 149.753906 C 780.144531 141.519531 799.1875 133 814.738281 119.800781 C 815.589844 119.085938 816.78125 118.945312 817.769531 119.453125 C 818.753906 119.957031 819.34375 121.019531 819.25 122.125 C 817.222656 146.613281 817.410156 171.4375 819.796875 195.894531 C 819.945312 197.40625 818.839844 198.746094 817.328125 198.898438 C 817.242188 198.898438 817.148438 198.90625 817.066406 198.90625 " fill-opacity="1" fill-rule="nonzero"/><path fill="#2871ba" d="M 216.777344 192.875 C 215.960938 192.875 215.164062 192.507812 214.617188 191.824219 C 213.679688 190.632812 213.886719 188.90625 215.078125 187.96875 C 234.175781 172.976562 254.886719 158.875 276.769531 145.972656 C 258.554688 144.625 241.476562 141.453125 223.898438 129.800781 C 223.925781 130.964844 223.957031 132.144531 223.984375 133.328125 C 224.378906 148.546875 224.820312 165.789062 220.832031 179.148438 C 220.398438 180.601562 218.859375 181.417969 217.414062 180.988281 C 215.960938 180.554688 215.132812 179.035156 215.566406 177.582031 C 219.300781 165.058594 218.878906 148.273438 218.492188 133.46875 C 218.417969 130.390625 218.335938 127.371094 218.296875 124.472656 C 218.289062 123.429688 218.859375 122.464844 219.796875 121.996094 C 220.726562 121.515625 221.84375 121.609375 222.679688 122.230469 C 243.539062 137.746094 263.785156 139.921875 286.175781 141.039062 C 287.394531 141.097656 288.425781 141.960938 288.707031 143.140625 C 288.988281 144.332031 288.453125 145.5625 287.394531 146.164062 C 262.835938 160.152344 239.636719 175.660156 218.476562 192.285156 C 217.96875 192.675781 217.378906 192.875 216.777344 192.875 " fill-opacity="1" fill-rule="nonzero"/><path fill="#fdb71e" d="M 608.777344 252.683594 L 538.765625 252.683594 C 473.246094 252.683594 418.1875 301.910156 410.914062 367.011719 C 402.390625 443.230469 462.058594 509.917969 538.765625 509.917969 L 608.777344 509.917969 C 674.296875 509.917969 729.347656 460.679688 736.628906 395.578125 C 745.152344 319.371094 685.484375 252.683594 608.777344 252.683594 " fill-opacity="1" fill-rule="nonzero"/><path fill="#2871ba" d="M 281.339844 509.917969 L 570.871094 509.917969 C 580.839844 509.917969 589.210938 502.421875 590.316406 492.523438 L 614.699219 274.421875 C 615.992188 262.824219 606.917969 252.683594 595.242188 252.683594 L 305.722656 252.683594 C 295.757812 252.683594 287.375 260.171875 286.269531 270.078125 L 261.886719 488.171875 C 260.59375 499.765625 269.675781 509.917969 281.339844 509.917969 " fill-opacity="1" fill-rule="nonzero"/><path fill="#ffffff" d="M 293.449219 499.195312 L 558.851562 499.195312 C 567.980469 499.195312 575.65625 492.328125 576.679688 483.253906 L 599.015625 283.324219 C 600.207031 272.707031 591.894531 263.398438 581.183594 263.398438 L 315.792969 263.398438 C 306.660156 263.398438 298.976562 270.265625 297.960938 279.347656 L 275.617188 479.265625 C 274.433594 489.894531 282.75 499.195312 293.449219 499.195312 " fill-opacity="1" fill-rule="nonzero"/><path fill="#2871ba" d="M 502.113281 347.9375 C 502.113281 356.636719 509.167969 363.691406 517.878906 363.691406 C 526.578125 363.691406 533.632812 356.636719 533.632812 347.9375 C 533.632812 339.230469 526.578125 332.175781 517.878906 332.175781 C 509.167969 332.175781 502.113281 339.230469 502.113281 347.9375 " fill-opacity="1" fill-rule="nonzero"/><path fill="#2871ba" d="M 341.5625 347.9375 C 341.5625 356.636719 348.617188 363.691406 357.328125 363.691406 C 366.027344 363.691406 373.085938 356.636719 373.085938 347.9375 C 373.085938 339.230469 366.027344 332.175781 357.328125 332.175781 C 348.617188 332.175781 341.5625 339.230469 341.5625 347.9375 " fill-opacity="1" fill-rule="nonzero"/><path fill="#2871ba" d="M 433.773438 403.949219 C 416.113281 403.949219 395.496094 400.449219 374.050781 389.59375 C 372.691406 388.910156 372.15625 387.257812 372.839844 385.90625 C 373.527344 384.554688 375.175781 384.011719 376.527344 384.695312 C 433.886719 413.714844 484.9375 387.90625 485.453125 387.644531 C 486.785156 386.9375 488.449219 387.464844 489.152344 388.804688 C 489.855469 390.15625 489.332031 391.808594 487.988281 392.511719 C 487.640625 392.691406 465.476562 403.949219 433.773438 403.949219 " fill-opacity="1" fill-rule="nonzero"/><path fill="#2871ba" d="M 867.019531 354.234375 C 866.738281 354.234375 866.445312 354.1875 866.164062 354.09375 C 864.726562 353.625 863.941406 352.074219 864.410156 350.632812 L 884.773438 288.382812 C 886.753906 282.339844 892.355469 278.277344 898.710938 278.277344 C 905.074219 278.277344 910.675781 282.339844 912.65625 288.382812 L 933.019531 350.632812 C 933.496094 352.074219 932.710938 353.625 931.265625 354.09375 C 929.828125 354.582031 928.269531 353.785156 927.800781 352.339844 L 907.4375 290.089844 C 906.199219 286.308594 902.699219 283.765625 898.710938 283.765625 C 894.730469 283.765625 891.230469 286.308594 889.992188 290.089844 L 869.628906 352.339844 C 869.25 353.503906 868.171875 354.234375 867.019531 354.234375 " fill-opacity="1" fill-rule="nonzero"/><path fill="#2871ba" d="M 912.234375 325.421875 L 882.980469 325.421875 C 881.460938 325.421875 880.230469 324.203125 880.230469 322.683594 C 880.230469 321.164062 881.460938 319.933594 882.980469 319.933594 L 912.234375 319.933594 C 913.753906 319.933594 914.980469 321.164062 914.980469 322.683594 C 914.980469 324.203125 913.753906 325.421875 912.234375 325.421875 " fill-opacity="1" fill-rule="nonzero"/><path fill="#2871ba" d="M 180.394531 309.632812 L 104.105469 309.632812 C 102.59375 309.632812 101.367188 308.394531 101.367188 306.882812 C 101.367188 305.363281 102.59375 304.132812 104.105469 304.132812 L 180.394531 304.132812 C 181.914062 304.132812 183.140625 305.363281 183.140625 306.882812 C 183.140625 308.394531 181.914062 309.632812 180.394531 309.632812 " fill-opacity="1" fill-rule="nonzero"/><path fill="#2871ba" d="M 104.78125 372.996094 C 103.730469 372.996094 102.734375 372.398438 102.277344 371.375 C 101.648438 369.996094 102.265625 368.371094 103.644531 367.742188 C 137.917969 352.28125 158.527344 330.253906 169.769531 314.511719 C 170.652344 313.28125 172.367188 312.992188 173.597656 313.871094 C 174.835938 314.753906 175.117188 316.460938 174.238281 317.699219 C 162.601562 333.996094 141.296875 356.777344 105.90625 372.753906 C 105.542969 372.914062 105.148438 372.996094 104.78125 372.996094 " fill-opacity="1" fill-rule="nonzero"/><path fill="#2871ba" d="M 179.277344 372.105469 C 178.84375 372.105469 178.394531 372.003906 177.980469 371.777344 C 150.539062 357.058594 129.023438 333.96875 128.113281 332.992188 C 127.089844 331.875 127.15625 330.140625 128.261719 329.109375 C 129.371094 328.085938 131.113281 328.152344 132.148438 329.269531 C 132.363281 329.492188 153.964844 352.667969 180.582031 366.9375 C 181.914062 367.660156 182.417969 369.320312 181.695312 370.652344 C 181.210938 371.582031 180.261719 372.105469 179.277344 372.105469 " fill-opacity="1" fill-rule="nonzero"/><path fill="#2871ba" d="M 142.46875 300.289062 C 140.949219 300.289062 139.730469 299.058594 139.730469 297.539062 L 139.730469 275.527344 C 139.730469 274.019531 140.949219 272.789062 142.46875 272.789062 C 143.992188 272.789062 145.21875 274.019531 145.21875 275.527344 L 145.21875 297.539062 C 145.21875 299.058594 143.992188 300.289062 142.46875 300.289062 " fill-opacity="1" fill-rule="nonzero"/><g clip-path="url(#4e7383d1a1)"><path fill="#f2f2f2" d="M 1126.671875 932.265625 L 1126.671875 1051.757812 C 1126.671875 1056.46875 1122.816406 1060.261719 1118.0625 1060.261719 L 1008.316406 1060.261719 C 1003.5625 1060.261719 999.707031 1056.4375 999.707031 1051.757812 L 999.707031 898.355469 C 999.707031 893.644531 1003.5625 889.851562 1008.316406 889.851562 L 1083.9375 889.851562 L 1090.273438 896.136719 Z M 1126.671875 932.265625 " fill-opacity="1" fill-rule="nonzero"/></g><path fill="#cccccc" d="M 1109.074219 969.386719 L 1109.074219 1020.476562 C 1109.074219 1024.234375 1106.011719 1027.273438 1102.1875 1027.273438 L 999.707031 1027.273438 L 999.707031 962.558594 L 1102.1875 962.558594 C 1106.011719 962.558594 1109.074219 965.632812 1109.074219 969.386719 Z M 1109.074219 969.386719 " fill-opacity="1" fill-rule="nonzero"/><g clip-path="url(#46783f5cf5)"><path fill="#ff0000" d="M 1102.222656 1020.476562 L 988.585938 1020.476562 C 984.796875 1020.476562 981.695312 1017.402344 981.695312 1013.644531 L 981.695312 962.59375 C 981.695312 958.835938 984.796875 955.761719 988.585938 955.761719 L 1102.222656 955.761719 C 1106.011719 955.761719 1109.109375 958.835938 1109.109375 962.59375 L 1109.109375 1013.644531 C 1109.109375 1017.402344 1106.011719 1020.476562 1102.222656 1020.476562 Z M 1102.222656 1020.476562 " fill-opacity="1" fill-rule="nonzero"/></g><g clip-path="url(#47ff3a4d07)"><path fill="#e6e6e6" d="M 1126.671875 962.351562 L 1084.625 920.757812 L 1084.625 890.707031 L 1126.671875 932.265625 Z M 1126.671875 962.351562 " fill-opacity="1" fill-rule="nonzero"/></g><g clip-path="url(#8a50eaff4f)"><path fill="#b3b3b3" d="M 1126.671875 932.265625 L 1092.546875 932.265625 C 1087.792969 932.265625 1083.9375 928.441406 1083.9375 923.761719 L 1083.9375 889.851562 L 1090.273438 896.136719 Z M 1126.671875 932.265625 " fill-opacity="1" fill-rule="nonzero"/></g><path fill="#ffffff" d="M 1027.839844 980.65625 C 1027.839844 987.144531 1023.46875 990.527344 1018.648438 991.105469 C 1016.855469 991.3125 1015.511719 991.347656 1013.445312 991.347656 L 1009.589844 991.347656 L 1009.589844 1002.890625 L 1000.878906 1002.890625 L 1000.878906 970.003906 L 1013.414062 970.003906 C 1015.476562 970.003906 1016.820312 970.035156 1018.613281 970.242188 C 1023.433594 970.789062 1027.839844 974.167969 1027.839844 980.65625 Z M 1018.785156 980.65625 C 1018.785156 978.164062 1017.476562 976.902344 1015.273438 976.695312 C 1014.652344 976.660156 1013.859375 976.660156 1012.964844 976.660156 L 1009.589844 976.660156 L 1009.589844 984.6875 L 1012.964844 984.6875 C 1013.894531 984.6875 1014.652344 984.6875 1015.273438 984.652344 C 1017.476562 984.414062 1018.785156 983.117188 1018.785156 980.65625 Z M 1018.785156 980.65625 " fill-opacity="1" fill-rule="nonzero"/><path fill="#ffffff" d="M 1062.828125 985.984375 C 1062.828125 996.296875 1056.457031 1001.796875 1048.742188 1002.683594 C 1047.054688 1002.890625 1046.296875 1002.890625 1044.507812 1002.890625 L 1031.9375 1002.890625 L 1031.9375 970.003906 L 1044.507812 970.003906 C 1046.296875 970.003906 1047.054688 970.003906 1048.742188 970.207031 C 1056.457031 971.027344 1062.828125 975.707031 1062.828125 985.984375 Z M 1053.769531 986.121094 C 1053.769531 980.246094 1050.773438 977.105469 1046.4375 976.730469 C 1045.335938 976.628906 1044.542969 976.628906 1043.304688 976.628906 L 1040.617188 976.628906 L 1040.617188 996.160156 L 1043.304688 996.160156 C 1044.542969 996.160156 1045.335938 996.160156 1046.4375 996.058594 C 1050.773438 995.71875 1053.769531 991.996094 1053.769531 986.121094 Z M 1053.769531 986.121094 " fill-opacity="1" fill-rule="nonzero"/><path fill="#ffffff" d="M 1076.707031 983.046875 L 1091.617188 983.046875 L 1091.617188 989.707031 L 1076.707031 989.707031 L 1076.707031 1002.855469 L 1068.027344 1002.855469 L 1068.027344 969.96875 L 1093.0625 969.96875 L 1093.0625 976.628906 L 1076.707031 976.628906 Z M 1076.707031 983.046875 " fill-opacity="1" fill-rule="nonzero"/><g clip-path="url(#de3eda518b)"><path fill="#ffffff" d="M 872.25 882.464844 L 796.09375 882.464844 C 789.210938 882.464844 783.578125 888.070312 783.578125 894.921875 L 783.578125 1055.414062 C 783.578125 1062.265625 789.210938 1067.875 796.09375 1067.875 L 906.464844 1067.875 C 913.351562 1067.875 918.984375 1062.265625 918.984375 1055.414062 L 918.984375 929.179688 Z M 872.25 882.464844 " fill-opacity="1" fill-rule="nonzero"/></g><g clip-path="url(#a3871d9f67)"><path stroke-linecap="butt" transform="matrix(2.086406, 0, 0, 2.076258, 758.748905, 882.463514)" fill="none" stroke-linejoin="miter" d="M 54.400299 0.000640363 L 54.400299 22.500183 L 76.799766 22.500183 " stroke="#185abd" stroke-width="1" stroke-opacity="1" stroke-miterlimit="10"/></g><path fill="#41a5ee" d="M 856.183594 954.300781 L 903.128906 954.300781 L 903.128906 959.078125 L 856.183594 959.078125 Z M 856.183594 954.300781 " fill-opacity="1" fill-rule="nonzero"/><path fill="#2b7cd3" d="M 856.183594 967.796875 L 903.128906 967.796875 L 903.128906 972.574219 L 856.183594 972.574219 Z M 856.183594 967.796875 " fill-opacity="1" fill-rule="nonzero"/><path fill="#185abd" d="M 856.183594 981.292969 L 903.128906 981.292969 L 903.128906 986.070312 L 856.183594 986.070312 Z M 856.183594 981.292969 " fill-opacity="1" fill-rule="nonzero"/><path fill="#103f91" d="M 856.183594 994.789062 L 903.128906 994.789062 L 903.128906 999.5625 L 856.183594 999.5625 Z M 856.183594 994.789062 " fill-opacity="1" fill-rule="nonzero"/><path fill="#ffffff" d="M 846.167969 939.351562 L 846.167969 1010.984375 C 846.167969 1011.398438 846.167969 1011.8125 846.167969 1012.023438 C 845.542969 1015.34375 842.621094 1018.042969 839.074219 1018.042969 L 766.886719 1018.042969 C 765.632812 1018.042969 764.171875 1017.628906 763.128906 1017.003906 C 762.714844 1016.796875 762.503906 1016.589844 762.296875 1016.382812 C 760.835938 1015.136719 759.792969 1013.058594 759.792969 1010.984375 L 759.792969 939.351562 C 759.792969 935.40625 762.921875 932.292969 766.886719 932.292969 L 838.867188 932.292969 C 842.621094 932.292969 845.542969 934.992188 845.960938 938.316406 L 845.960938 938.523438 C 846.167969 938.730469 846.167969 939.144531 846.167969 939.351562 Z M 846.167969 939.351562 " fill-opacity="1" fill-rule="nonzero"/><g clip-path="url(#2a0e386517)"><path stroke-linecap="butt" transform="matrix(2.086406, 0, 0, 2.076258, 758.748905, 882.463514)" fill="none" stroke-linejoin="miter" d="M 41.89936 27.399322 L 41.89936 61.900251 C 41.89936 62.099678 41.89936 62.299106 41.89936 62.400701 C 41.599802 63.999882 40.199367 65.299923 38.499374 65.299923 L 3.900398 65.299923 C 3.29941 65.299923 2.599192 65.100495 2.099305 64.799473 C 1.900847 64.699759 1.799746 64.600046 1.700518 64.500332 C 1.0003 63.900168 0.500412 62.899269 0.500412 61.900251 L 0.500412 27.399322 C 0.500412 25.499118 2.000076 23.99965 3.900398 23.99965 L 38.400145 23.99965 C 40.199367 23.99965 41.599802 25.299691 41.800131 26.900754 L 41.800131 27.000467 C 41.89936 27.100181 41.89936 27.299608 41.89936 27.399322 Z M 41.89936 27.399322 " stroke="#185abd" stroke-width="1" stroke-opacity="1" stroke-miterlimit="10"/></g><path fill="#185abd" d="M 783.996094 998.527344 L 772.726562 952.019531 L 782.117188 952.019531 C 782.117188 952.019531 788.585938 984.824219 789.417969 989.390625 L 789.628906 989.390625 C 790.460938 984.617188 791.714844 979.007812 793.175781 972.988281 L 798.183594 952.019531 L 807.988281 952.019531 C 807.988281 952.019531 816.125 984.199219 816.75 989.183594 C 817.585938 983.992188 823.84375 952.019531 823.84375 952.019531 L 832.816406 952.019531 L 821.757812 998.734375 L 811.328125 998.734375 C 811.328125 998.734375 803.1875 966.96875 802.5625 961.984375 C 801.730469 966.96875 794.636719 998.734375 794.636719 998.734375 L 783.996094 998.734375 Z M 783.996094 998.527344 " fill-opacity="1" fill-rule="nonzero"/></svg>